<svg viewBox="0 0 170 170" xmlns="http://www.w3.org/2000/svg">
    <path d="M127.806 90.003c.225 24.213 21.24 32.27 21.474 32.374-.178.568-3.358 11.482-11.072 22.756-6.67 9.747-13.59 19.458-24.493 19.66-10.714.197-14.16-6.354-26.407-6.354-12.245 0-16.072 6.15-26.214 6.55-10.524.395-18.538-10.54-25.262-20.25-13.74-19.87-24.24-56.137-10.14-80.618C32.694 51.967 45.21 44.27 58.797 44.07c10.334-.196 20.09 6.954 26.407 6.954 6.313 0 18.167-8.598 30.63-7.335 5.215.213 19.86 2.103 29.262 15.87-.757.47-17.473 10.2-17.29 30.44M107.67 30.546c5.59-6.763 9.35-16.178 8.324-25.546-8.054.325-17.793 5.368-23.57 12.127-5.177 5.986-9.71 15.567-8.488 24.75 8.977.694 18.148-4.562 23.735-11.33"/>
</svg>
