<svg xmlns="http://www.w3.org/2000/svg" viewBox="0 0 1024 1024">
    <path d="M743 722v38l19 16.197V737zm-14.54-226.13l-31.15 22.95 46.19 31.426 29.22-27.19zm-550.82 42.622L189.114 568l18.033 13.115-14.755-30.87zM529 424.332l-17 30L555 451l6.667-11.667zm-392-76.665l14-6 15.333 18-24 6zm480.667-111.334l-8 39.334 12-11.334 3.333-22zM582.333 495.87l6 27.187 17.334-17.39zM630 622v14l-11.667-7zM137 813.575l29.333 27-23.224 28.498-19.5-38.998zM896.07 126.61l-14.998 26.998 34.498-13.5 10.5-29.997zM166 64v22l11.64-11zm241 619.082l-15 15 15 6zM59.113 131.86l-18 21.748 37.5-10.874 9-22.124zM697.31 911.07l-8.228 24 26.998-12z"/>
</svg>
